<svg xmlns="http://www.w3.org/2000/svg" width="720" height="206" viewBox="0 0 720 206"><defs><style type="text/css"><![CDATA[rect,svg>path{fill:#fff;stroke:#000;stroke-width:1}svg>path{stroke-width:2;fill:none;marker-end:url(#arrow)}text{fill:#000}]]></style><marker id="arrow" markerHeight="13" markerWidth="13" orient="auto" refX="8" refY="6"><path d="M0,2 L0,11 L8,6 L0,2" style="fill:#000"/></marker></defs><rect width="128" height="32" x="8" y="8"/><text x="72" y="32" font-size="20" text-anchor="middle">Draft</text><path d="M136,24 L200,24"/><rect width="128" height="32" x="200" y="8"/><text x="264" y="32" font-size="20" text-anchor="middle">Proposed</text><path d="M328,24 L392,24"/><rect width="128" height="32" x="392" y="8"/><text x="456" y="32" font-size="20" text-anchor="middle">Final/Active</text><path d="M456,40 L456,80"/><rect width="128" height="32" x="392" y="80"/><text x="456" y="104" font-size="20" text-anchor="middle">Replaced</text><path d="M120,40 L120,72 L200,72"/><rect width="128" height="32" x="200" y="56"/><text x="264" y="80" font-size="20" text-anchor="middle">Rejected</text><path stroke-dasharray="4 2" d="M328,32 L360,32 L360,72 L328,72"/><path d="M88,40 L88,120 L200,120"/><rect width="128" height="32" x="200" y="104"/><text x="264" y="128" font-size="20" text-anchor="middle">Withdrawn</text><path d="M24,40 L24,166"/><rect width="128" height="32" x="8" y="166"/><text x="72" y="190" font-size="20" text-anchor="middle">Deferred</text><path d="M56,166 L56,40"/><path d="M520,24 L584,24"/><rect width="128" height="32" x="584" y="8"/><text x="648" y="32" font-size="20" text-anchor="middle">Obsolete</text></svg>