<svg xmlns="http://www.w3.org/2000/svg" xmlns:svg="http://www.w3.org/2000/svg" id="svg2" width="744.094" height="1052.362" version="1.1"><defs id="defs4"><marker id="Arrow2Send" orient="auto" refX="0" refY="0" style="overflow:visible"><path id="path3908" d="M 8.7185878,4.0337352 L -2.2072895,0.016013256 L 8.7185884,-4.0017078 C 6.9730900,-1.6296469 6.9831476,1.6157441 8.7185878,4.0337352 z" transform="scale(0.3) rotate(180) translate(-2.3,0)" style="fill-rule:evenodd;stroke-width:.625;stroke-linejoin:round"/></marker><marker id="Arrow2Mend" orient="auto" refX="0" refY="0" style="overflow:visible"><path id="path3902" d="M 8.7185878,4.0337352 L -2.2072895,0.016013256 L 8.7185884,-4.0017078 C 6.9730900,-1.6296469 6.9831476,1.6157441 8.7185878,4.0337352 z" transform="scale(0.6) rotate(180) translate(0,0)" style="fill-rule:evenodd;stroke-width:.625;stroke-linejoin:round"/></marker><marker id="Arrow1Mend" orient="auto" refX="0" refY="0" style="overflow:visible"><path id="path3884" d="M 0.0,0.0 L 5.0,-5.0 L -12.5,0.0 L 5.0,5.0 L 0.0,0.0 z" transform="scale(0.4) rotate(180) translate(10,0)" style="fill-rule:evenodd;stroke:#000;stroke-width:1pt"/></marker><marker id="Arrow1Send" orient="auto" refX="0" refY="0" style="overflow:visible"><path id="path3890" d="M 0.0,0.0 L 5.0,-5.0 L -12.5,0.0 L 5.0,5.0 L 0.0,0.0 z" transform="scale(0.2) rotate(180) translate(6,0)" style="fill-rule:evenodd;stroke:#000;stroke-width:1pt"/></marker><marker id="EmptyTriangleOutL" orient="auto" refX="0" refY="0" style="overflow:visible"><path id="path4035" d="M 5.77,0.0 L -2.88,5.0 L -2.88,-5.0 L 5.77,0.0 z" transform="scale(0.8) translate(-6,0)" style="fill-rule:evenodd;fill:#fff;stroke:#000;stroke-width:1pt"/></marker><marker id="Arrow1Lend" orient="auto" refX="0" refY="0" style="overflow:visible"><path id="path3878" d="M 0.0,0.0 L 5.0,-5.0 L -12.5,0.0 L 5.0,5.0 L 0.0,0.0 z" transform="scale(0.8) rotate(180) translate(12.5,0)" style="fill-rule:evenodd;stroke:#000;stroke-width:1pt"/></marker><marker id="Arrow2Lend" orient="auto" refX="0" refY="0" style="overflow:visible"><path id="path3896" d="M 8.7185878,4.0337352 L -2.2072895,0.016013256 L 8.7185884,-4.0017078 C 6.9730900,-1.6296469 6.9831476,1.6157441 8.7185878,4.0337352 z" transform="scale(1.1) rotate(180) translate(1,0)" style="fill-rule:evenodd;stroke-width:.625;stroke-linejoin:round"/></marker><marker id="Arrow2Lstart" orient="auto" refX="0" refY="0" style="overflow:visible"><path id="path3893" d="M 8.7185878,4.0337352 L -2.2072895,0.016013256 L 8.7185884,-4.0017078 C 6.9730900,-1.6296469 6.9831476,1.6157441 8.7185878,4.0337352 z" transform="scale(1.1) translate(1,0)" style="fill-rule:evenodd;stroke-width:.625;stroke-linejoin:round"/></marker><marker id="Arrow2Mend-7" orient="auto" refX="0" refY="0" style="overflow:visible"><path id="path3902-3" d="M 8.7185878,4.0337352 -2.2072895,0.01601326 8.7185884,-4.0017078 c -1.7454984,2.3720609 -1.7354408,5.6174519 -6e-7,8.035443 z" transform="scale(-0.6,-0.6)" style="fill-rule:evenodd;stroke-width:.625;stroke-linejoin:round"/></marker><marker id="Arrow2Mend-1" orient="auto" refX="0" refY="0" style="overflow:visible"><path id="path3902-2" d="M 8.7185878,4.0337352 -2.2072895,0.01601326 8.7185884,-4.0017078 c -1.7454984,2.3720609 -1.7354408,5.6174519 -6e-7,8.035443 z" transform="scale(-0.6,-0.6)" style="fill-rule:evenodd;stroke-width:.625;stroke-linejoin:round"/></marker><marker id="Arrow2Mend-15" orient="auto" refX="0" refY="0" style="overflow:visible"><path id="path3902-0" d="M 8.7185878,4.0337352 -2.2072895,0.01601326 8.7185884,-4.0017078 c -1.7454984,2.3720609 -1.7354408,5.6174519 -6e-7,8.035443 z" transform="scale(-0.6,-0.6)" style="fill-rule:evenodd;stroke-width:.625;stroke-linejoin:round"/></marker><marker id="Arrow2Mend-0" orient="auto" refX="0" refY="0" style="overflow:visible"><path id="path3902-4" d="M 8.7185878,4.0337352 -2.2072895,0.01601326 8.7185884,-4.0017078 c -1.7454984,2.3720609 -1.7354408,5.6174519 -6e-7,8.035443 z" transform="scale(-0.6,-0.6)" style="fill-rule:evenodd;stroke-width:.625;stroke-linejoin:round"/></marker><marker id="Arrow2Mend-11" orient="auto" refX="0" refY="0" style="overflow:visible"><path id="path3902-30" d="M 8.7185878,4.0337352 -2.2072895,0.01601326 8.7185884,-4.0017078 c -1.7454984,2.3720609 -1.7354408,5.6174519 -6e-7,8.035443 z" transform="scale(-0.6,-0.6)" style="fill-rule:evenodd;stroke-width:.625;stroke-linejoin:round"/></marker><marker id="Arrow2Mend-6" orient="auto" refX="0" refY="0" style="overflow:visible"><path id="path3902-5" d="M 8.7185878,4.0337352 -2.2072895,0.01601326 8.7185884,-4.0017078 c -1.7454984,2.3720609 -1.7354408,5.6174519 -6e-7,8.035443 z" transform="scale(-0.6,-0.6)" style="fill-rule:evenodd;stroke-width:.625;stroke-linejoin:round"/></marker><marker id="Arrow2Mend-2" orient="auto" refX="0" refY="0" style="overflow:visible"><path id="path3902-21" d="M 8.7185878,4.0337352 -2.2072895,0.01601326 8.7185884,-4.0017078 c -1.7454984,2.3720609 -1.7354408,5.6174519 -6e-7,8.035443 z" transform="scale(-0.6,-0.6)" style="fill-rule:evenodd;stroke-width:.625;stroke-linejoin:round"/></marker></defs><metadata id="metadata7"/><g id="layer1"><rect style="fill:none;stroke:#000;stroke-width:1.27499998;stroke-linecap:butt;stroke-linejoin:miter;stroke-miterlimit:4;stroke-opacity:1;stroke-dasharray:none" id="rect3759" width="180" height="60" x="60" y="212.362"/><text style="font-size:40px;font-style:normal;font-weight:400;line-height:125%;letter-spacing:0;word-spacing:0;fill:#000;fill-opacity:1;stroke:none;font-family:Sans" id="text3761" x="100" y="252.362" xml:space="preserve"><tspan id="tspan3763" x="100" y="252.362" style="font-size:24px;font-style:normal;font-variant:normal;font-weight:700;font-stretch:normal;font-family:Monospace;-inkscape-font-specification:Monospace Bold">DEFINED</tspan></text><rect style="fill:none;stroke:#000;stroke-width:1.27499998;stroke-linecap:butt;stroke-linejoin:miter;stroke-miterlimit:4;stroke-opacity:1;stroke-dasharray:none" id="rect3759-4" width="180" height="60" x="60" y="372.362"/><text style="font-size:40px;font-style:normal;font-weight:400;line-height:125%;letter-spacing:0;word-spacing:0;fill:#000;fill-opacity:1;stroke:none;font-family:Sans" id="text3761-9" x="100" y="412.362" xml:space="preserve"><tspan id="tspan3763-9" x="100" y="412.362" style="font-size:24px;font-style:normal;font-variant:normal;font-weight:700;font-stretch:normal;font-family:Monospace;-inkscape-font-specification:Monospace Bold">STARTED</tspan></text><rect style="fill:none;stroke:#000;stroke-width:1.27499998;stroke-linecap:butt;stroke-linejoin:miter;stroke-miterlimit:4;stroke-opacity:1;stroke-dasharray:none" id="rect3759-0" width="220" height="60" x="40" y="532.362"/><text style="font-size:46.18802261px;font-style:normal;font-weight:400;line-height:125%;letter-spacing:0;word-spacing:0;fill:#000;fill-opacity:1;stroke:none;font-family:Sans" id="text3761-8" x="69.282" y="660.907" transform="scale(1.1547005,0.86602543)" xml:space="preserve"><tspan id="tspan3763-93" x="69.282" y="660.907" style="font-size:24px;font-style:normal;font-variant:normal;font-weight:700;font-stretch:normal;font-family:Monospace;-inkscape-font-specification:Monospace Bold">LOCKED_IN</tspan></text><rect style="fill:none;stroke:#000;stroke-width:1.20957112;stroke-linecap:butt;stroke-linejoin:miter;stroke-miterlimit:4;stroke-opacity:1;stroke-dasharray:none" id="rect3759-4-1" width="180" height="60" x="60" y="692.362"/><text style="font-size:40px;font-style:normal;font-weight:400;line-height:125%;letter-spacing:0;word-spacing:0;fill:#000;fill-opacity:1;stroke:none;font-family:Sans" id="text3761-9-4" x="100" y="732.362" xml:space="preserve"><tspan id="tspan3763-9-8" x="100" y="732.362" style="font-size:24px;font-style:normal;font-variant:normal;font-weight:700;font-stretch:normal;font-family:Monospace;-inkscape-font-specification:Monospace Bold">ACTIVE</tspan></text><rect style="fill:none;stroke:#000;stroke-width:1.27499998;stroke-linecap:butt;stroke-linejoin:miter;stroke-miterlimit:4;stroke-opacity:1;stroke-dasharray:none" id="rect3759-4-9" width="180" height="60" x="390" y="292.362"/><text style="font-size:40px;font-style:normal;font-weight:400;line-height:125%;letter-spacing:0;word-spacing:0;fill:#000;fill-opacity:1;stroke:none;font-family:Sans" id="text3761-9-6" x="430" y="332.362" xml:space="preserve"><tspan id="tspan3763-9-7" x="430" y="332.362" style="font-size:24px;font-style:normal;font-variant:normal;font-weight:700;font-stretch:normal;font-family:Monospace;-inkscape-font-specification:Monospace Bold">FAILED</tspan></text><path style="fill:none;stroke:#000;stroke-width:9.2748518;stroke-linecap:butt;stroke-linejoin:miter;stroke-miterlimit:4;stroke-opacity:1;stroke-dasharray:none;marker-start:none;marker-end:url(#Arrow2Mend)" id="path3869" d="m 194.86409,193.30741 a 80,70 0 1 1 24.86632,-56.68713" transform="matrix(0.3037615,0,0,0.35042181,-2.52661,162.0049)"/><path style="fill:none;stroke:#000;stroke-width:3;stroke-linecap:butt;stroke-linejoin:miter;stroke-miterlimit:4;stroke-opacity:1;stroke-dasharray:none;marker-end:url(#Arrow2Mend)" id="path6409" d="m 240,242.36218 150,50"/><path style="fill:none;stroke:#000;stroke-width:3;stroke-linecap:butt;stroke-linejoin:miter;stroke-miterlimit:4;stroke-opacity:1;stroke-dasharray:none;marker-end:url(#Arrow2Mend)" id="path6409-7" d="m 150,272.36218 0,100"/><path style="fill:none;stroke:#000;stroke-width:3;stroke-linecap:butt;stroke-linejoin:miter;stroke-miterlimit:4;stroke-opacity:1;stroke-dasharray:none;marker-end:url(#Arrow2Mend)" id="path6409-7-2" d="m 150,432.36218 0,100"/><path style="fill:none;stroke:#000;stroke-width:3;stroke-linecap:butt;stroke-linejoin:miter;stroke-miterlimit:4;stroke-opacity:1;stroke-dasharray:none;marker-end:url(#Arrow2Mend)" id="path6409-7-9" d="m 150,592.36218 0,100"/><path style="fill:none;stroke:#000;stroke-width:3;stroke-linecap:butt;stroke-linejoin:miter;stroke-miterlimit:4;stroke-opacity:1;stroke-dasharray:none;marker-end:url(#Arrow2Mend)" id="path6409-0" d="m 240,402.36218 150,-50"/><text style="font-size:40px;font-style:normal;font-weight:400;line-height:125%;letter-spacing:0;word-spacing:0;fill:#000;fill-opacity:1;stroke:none;font-family:Sans" id="text6692" x="160" y="322.362" xml:space="preserve"><tspan id="tspan6694" x="160" y="322.362" style="font-size:14px">starttime &lt;= MTP &lt; timeout</tspan></text><text style="font-size:40px;font-style:normal;font-weight:400;line-height:125%;letter-spacing:0;word-spacing:0;fill:#000;fill-opacity:1;stroke:none;font-family:Sans" id="text6692-1" x="330" y="262.362" xml:space="preserve"><tspan id="tspan6694-3" x="330" y="262.362" style="font-size:14px">MTP &gt;= timeout</tspan></text><text style="font-size:40px;font-style:normal;font-weight:400;line-height:125%;letter-spacing:0;word-spacing:0;fill:#000;fill-opacity:1;stroke:none;font-family:Sans" id="text6692-1-7" x="330" y="392.362" xml:space="preserve"><tspan id="tspan6694-3-4" x="330" y="392.362" style="font-size:14px">MTP &gt;= timeout</tspan></text><path style="fill:none;stroke:#000;stroke-width:9.2748518;stroke-linecap:butt;stroke-linejoin:miter;stroke-miterlimit:4;stroke-opacity:1;stroke-dasharray:none;marker-start:none;marker-end:url(#Arrow2Mend)" id="path3869-3" d="m 194.86409,193.30741 a 80,70 0 1 1 24.86632,-56.68713" transform="matrix(0.3037615,0,0,0.35042181,-2.52661,317.94584)"/><text style="font-size:40px;font-style:normal;font-weight:400;line-height:125%;letter-spacing:0;word-spacing:0;fill:#000;fill-opacity:1;stroke:none;font-family:Sans" id="text6692-2" x="160" y="468.362" xml:space="preserve"><tspan id="tspan6694-1" x="160" y="468.362" style="font-size:14px">(mod(height, windowsize) = 0)</tspan><tspan style="font-size:14px" id="tspan6856" x="160" y="485.862"> AND</tspan><tspan style="font-size:14px" id="tspan6858" x="160" y="503.362">(MTP &lt; timeout) AND (threshold reached)</tspan></text><text style="font-size:40px;font-style:normal;font-weight:400;line-height:125%;letter-spacing:0;word-spacing:0;fill:#000;fill-opacity:1;stroke:none;font-family:Sans" id="text6692-2-7" x="110" y="612.362" xml:space="preserve"><tspan id="tspan6694-1-5" x="110" y="612.362" style="font-size:14px">(mod(height, windowsize) = 0)</tspan><tspan style="font-size:14px" id="tspan6804" x="110" y="629.862"> AND</tspan><tspan style="font-size:14px" id="tspan6806" x="110" y="647.362"> (height &gt;= locked_in_height + minlockedblocks) </tspan><tspan style="font-size:14px" id="tspan3052" x="110" y="664.862"> AND</tspan><tspan style="font-size:14px" id="tspan3054" x="110" y="682.362"> (MTP &gt;= locked_in_time + minlockedtime)</tspan></text><path style="fill:none;stroke:#000;stroke-width:9.2748518;stroke-linecap:butt;stroke-linejoin:miter;stroke-miterlimit:4;stroke-opacity:1;stroke-dasharray:none;marker-start:none;marker-end:url(#Arrow2Mend)" id="path3869-3-4" d="m 194.86409,193.30741 a 80,70 0 1 1 24.86632,-56.68713" transform="matrix(0.3037615,0,0,0.35042181,-2.52661,637.94584)"/><path style="fill:none;stroke:#000;stroke-width:9.2748518;stroke-linecap:butt;stroke-linejoin:miter;stroke-miterlimit:4;stroke-opacity:1;stroke-dasharray:none;marker-start:none;marker-end:url(#Arrow2Mend)" id="path3869-3-4-7" d="m 194.86409,193.30741 a 80,70 0 1 1 24.86632,-56.68713" transform="matrix(-0.3037615,0,0,0.35042181,632.52661,237.0049)"/><text style="font-size:40px;font-style:normal;font-weight:400;line-height:125%;letter-spacing:0;word-spacing:0;fill:#000;fill-opacity:1;stroke:none;font-family:Sans" id="text6692-1-3" x="80" y="642.362" xml:space="preserve"><tspan id="tspan6694-3-6" x="80" y="642.362" style="font-size:14px;font-style:italic;-inkscape-font-specification:Sans Italic">(Always)</tspan></text></g></svg>